<svg width="21" height="21" viewBox="0 0 21 21" fill="none" xmlns="http://www.w3.org/2000/svg">
<path d="M16.6145 1.76074L19.2395 4.38574L17.2384 6.38774L14.6134 3.76274L16.6145 1.76074ZM7 14.0002H9.625L16.0011 7.62412L13.3761 4.99912L7 11.3752V14.0002Z" fill="#112338"/>
<path d="M16.625 16H7.13825C7.1155 16 7.09188 16.0088 7.06913 16.0088C7.04025 16.0088 7.01138 16.0009 6.98163 16H4.375V3.75H10.3661L12.1161 2H4.375C3.40987 2 2.625 2.784 2.625 3.75V16C2.625 16.966 3.40987 17.75 4.375 17.75H16.625C17.0891 17.75 17.5342 17.5656 17.8624 17.2374C18.1906 16.9092 18.375 16.4641 18.375 16V8.4155L16.625 10.1655V16Z" fill="#112338"/>
</svg>
